<svg xmlns="http://www.w3.org/2000/svg" width="960" height="620" viewBox="0 0 960 620" role="img" aria-labelledby="chart-title chart-desc">
<title id="chart-title">Cached prefix handles cut time to first token</title>
<desc id="chart-desc">Line chart comparing full cumulative conversation requests with cached prefix handle requests across prompt sizes from 749 to 114457 tokens. The cached prefix handle path becomes faster at longer context, with clear separation after roughly 24000 prompt tokens in this fixture.</desc>
<rect width="100%" height="100%" fill="white"/>
<text x="480" y="30" font-family="system-ui, sans-serif" font-size="18" font-weight="700" text-anchor="middle" fill="#111827">Cached prefix handles cut time to first token</text>
<text x="480" y="52" font-family="system-ui, sans-serif" font-size="12" text-anchor="middle" fill="#4b5563">Benefit grows with conversation size; gpt-oss-20b on DGX, 12 paired runs; lower is better</text>
<line x1="96" y1="398.0" x2="882" y2="398.0" stroke="#e5e7eb"/>
<text x="84" y="402.0" font-family="system-ui, sans-serif" font-size="12" text-anchor="end" fill="#4b5563">0</text>
<line x1="96" y1="322.0" x2="882" y2="322.0" stroke="#e5e7eb"/>
<text x="84" y="326.0" font-family="system-ui, sans-serif" font-size="12" text-anchor="end" fill="#4b5563">150</text>
<line x1="96" y1="246.1" x2="882" y2="246.1" stroke="#e5e7eb"/>
<text x="84" y="250.1" font-family="system-ui, sans-serif" font-size="12" text-anchor="end" fill="#4b5563">300</text>
<line x1="96" y1="170.1" x2="882" y2="170.1" stroke="#e5e7eb"/>
<text x="84" y="174.1" font-family="system-ui, sans-serif" font-size="12" text-anchor="end" fill="#4b5563">450</text>
<line x1="96" y1="94.1" x2="882" y2="94.1" stroke="#e5e7eb"/>
<text x="84" y="98.1" font-family="system-ui, sans-serif" font-size="12" text-anchor="end" fill="#4b5563">600</text>
<line x1="96.0" y1="84" x2="96.0" y2="398" stroke="#f3f4f6"/>
<text x="96.0" y="428" font-family="system-ui, sans-serif" font-size="12" text-anchor="middle" fill="#4b5563">0</text>
<line x1="266.9" y1="84" x2="266.9" y2="398" stroke="#f3f4f6"/>
<text x="266.9" y="428" font-family="system-ui, sans-serif" font-size="12" text-anchor="middle" fill="#4b5563">25k</text>
<line x1="437.7" y1="84" x2="437.7" y2="398" stroke="#f3f4f6"/>
<text x="437.7" y="428" font-family="system-ui, sans-serif" font-size="12" text-anchor="middle" fill="#4b5563">50k</text>
<line x1="608.6" y1="84" x2="608.6" y2="398" stroke="#f3f4f6"/>
<text x="608.6" y="428" font-family="system-ui, sans-serif" font-size="12" text-anchor="middle" fill="#4b5563">75k</text>
<line x1="779.5" y1="84" x2="779.5" y2="398" stroke="#f3f4f6"/>
<text x="779.5" y="428" font-family="system-ui, sans-serif" font-size="12" text-anchor="middle" fill="#4b5563">100k</text>
<line x1="882.0" y1="84" x2="882.0" y2="398" stroke="#f3f4f6"/>
<text x="882.0" y="428" font-family="system-ui, sans-serif" font-size="12" text-anchor="middle" fill="#4b5563">115k</text>
<line x1="96" y1="398" x2="882" y2="398" stroke="#111827"/>
<line x1="96" y1="84" x2="96" y2="398" stroke="#111827"/>
<text x="489.0" y="462" font-family="system-ui, sans-serif" font-size="13" font-weight="600" text-anchor="middle" fill="#111827">Conversation prompt size (tokens)</text>
<text x="24" y="241.0" font-family="system-ui, sans-serif" font-size="13" font-weight="600" text-anchor="middle" transform="rotate(-90 24 241.0)" fill="#111827">Time to first token (ms)</text>
<polyline points="101.1,323.0 127.7,308.6 167.1,302.3 259.0,267.2 300.9,267.3 340.8,255.6 444.7,236.1 614.8,200.9 799.2,155.7 878.3,103.6" fill="none" stroke="#2563a6" stroke-width="2.9" stroke-linejoin="round" stroke-linecap="round"/>
<line x1="101.1" y1="325.3" x2="101.1" y2="320.8" stroke="#2563a6" stroke-width="1.6" opacity="0.72"/>
<line x1="96.1" y1="325.3" x2="106.1" y2="325.3" stroke="#2563a6" stroke-width="1.6" opacity="0.72"/>
<line x1="96.1" y1="320.8" x2="106.1" y2="320.8" stroke="#2563a6" stroke-width="1.6" opacity="0.72"/>
<circle cx="101.1" cy="323.0" r="4" fill="#2563a6"/>
<line x1="127.7" y1="312.7" x2="127.7" y2="304.5" stroke="#2563a6" stroke-width="1.6" opacity="0.72"/>
<line x1="122.7" y1="312.7" x2="132.7" y2="312.7" stroke="#2563a6" stroke-width="1.6" opacity="0.72"/>
<line x1="122.7" y1="304.5" x2="132.7" y2="304.5" stroke="#2563a6" stroke-width="1.6" opacity="0.72"/>
<circle cx="127.7" cy="308.6" r="4" fill="#2563a6"/>
<line x1="167.1" y1="308.5" x2="167.1" y2="296.1" stroke="#2563a6" stroke-width="1.6" opacity="0.72"/>
<line x1="162.1" y1="308.5" x2="172.1" y2="308.5" stroke="#2563a6" stroke-width="1.6" opacity="0.72"/>
<line x1="162.1" y1="296.1" x2="172.1" y2="296.1" stroke="#2563a6" stroke-width="1.6" opacity="0.72"/>
<circle cx="167.1" cy="302.3" r="4" fill="#2563a6"/>
<line x1="259.0" y1="273.9" x2="259.0" y2="260.5" stroke="#2563a6" stroke-width="1.6" opacity="0.72"/>
<line x1="254.0" y1="273.9" x2="264.0" y2="273.9" stroke="#2563a6" stroke-width="1.6" opacity="0.72"/>
<line x1="254.0" y1="260.5" x2="264.0" y2="260.5" stroke="#2563a6" stroke-width="1.6" opacity="0.72"/>
<circle cx="259.0" cy="267.2" r="4" fill="#2563a6"/>
<line x1="300.9" y1="274.7" x2="300.9" y2="259.9" stroke="#2563a6" stroke-width="1.6" opacity="0.72"/>
<line x1="295.9" y1="274.7" x2="305.9" y2="274.7" stroke="#2563a6" stroke-width="1.6" opacity="0.72"/>
<line x1="295.9" y1="259.9" x2="305.9" y2="259.9" stroke="#2563a6" stroke-width="1.6" opacity="0.72"/>
<circle cx="300.9" cy="267.3" r="4" fill="#2563a6"/>
<line x1="340.8" y1="263.5" x2="340.8" y2="247.7" stroke="#2563a6" stroke-width="1.6" opacity="0.72"/>
<line x1="335.8" y1="263.5" x2="345.8" y2="263.5" stroke="#2563a6" stroke-width="1.6" opacity="0.72"/>
<line x1="335.8" y1="247.7" x2="345.8" y2="247.7" stroke="#2563a6" stroke-width="1.6" opacity="0.72"/>
<circle cx="340.8" cy="255.6" r="4" fill="#2563a6"/>
<line x1="444.7" y1="247.2" x2="444.7" y2="225.0" stroke="#2563a6" stroke-width="1.6" opacity="0.72"/>
<line x1="439.7" y1="247.2" x2="449.7" y2="247.2" stroke="#2563a6" stroke-width="1.6" opacity="0.72"/>
<line x1="439.7" y1="225.0" x2="449.7" y2="225.0" stroke="#2563a6" stroke-width="1.6" opacity="0.72"/>
<circle cx="444.7" cy="236.1" r="4" fill="#2563a6"/>
<line x1="614.8" y1="213.6" x2="614.8" y2="188.2" stroke="#2563a6" stroke-width="1.6" opacity="0.72"/>
<line x1="609.8" y1="213.6" x2="619.8" y2="213.6" stroke="#2563a6" stroke-width="1.6" opacity="0.72"/>
<line x1="609.8" y1="188.2" x2="619.8" y2="188.2" stroke="#2563a6" stroke-width="1.6" opacity="0.72"/>
<circle cx="614.8" cy="200.9" r="4" fill="#2563a6"/>
<line x1="799.2" y1="170.9" x2="799.2" y2="140.5" stroke="#2563a6" stroke-width="1.6" opacity="0.72"/>
<line x1="794.2" y1="170.9" x2="804.2" y2="170.9" stroke="#2563a6" stroke-width="1.6" opacity="0.72"/>
<line x1="794.2" y1="140.5" x2="804.2" y2="140.5" stroke="#2563a6" stroke-width="1.6" opacity="0.72"/>
<circle cx="799.2" cy="155.7" r="4" fill="#2563a6"/>
<line x1="878.3" y1="126.8" x2="878.3" y2="80.5" stroke="#2563a6" stroke-width="1.6" opacity="0.72"/>
<line x1="873.3" y1="126.8" x2="883.3" y2="126.8" stroke="#2563a6" stroke-width="1.6" opacity="0.72"/>
<line x1="873.3" y1="80.5" x2="883.3" y2="80.5" stroke="#2563a6" stroke-width="1.6" opacity="0.72"/>
<circle cx="878.3" cy="103.6" r="4" fill="#2563a6"/>
<polyline points="101.1,322.3 127.7,318.5 167.1,316.6 259.0,309.4 300.9,310.7 340.8,296.0 444.7,287.2 614.8,275.1 799.2,254.5 878.3,242.2" fill="none" stroke="#c24173" stroke-width="2.9" stroke-linejoin="round" stroke-linecap="round"/>
<line x1="101.1" y1="325.8" x2="101.1" y2="318.7" stroke="#c24173" stroke-width="1.6" opacity="0.72"/>
<line x1="96.1" y1="325.8" x2="106.1" y2="325.8" stroke="#c24173" stroke-width="1.6" opacity="0.72"/>
<line x1="96.1" y1="318.7" x2="106.1" y2="318.7" stroke="#c24173" stroke-width="1.6" opacity="0.72"/>
<circle cx="101.1" cy="322.3" r="4" fill="#c24173"/>
<line x1="127.7" y1="321.0" x2="127.7" y2="316.0" stroke="#c24173" stroke-width="1.6" opacity="0.72"/>
<line x1="122.7" y1="321.0" x2="132.7" y2="321.0" stroke="#c24173" stroke-width="1.6" opacity="0.72"/>
<line x1="122.7" y1="316.0" x2="132.7" y2="316.0" stroke="#c24173" stroke-width="1.6" opacity="0.72"/>
<circle cx="127.7" cy="318.5" r="4" fill="#c24173"/>
<line x1="167.1" y1="322.5" x2="167.1" y2="310.8" stroke="#c24173" stroke-width="1.6" opacity="0.72"/>
<line x1="162.1" y1="322.5" x2="172.1" y2="322.5" stroke="#c24173" stroke-width="1.6" opacity="0.72"/>
<line x1="162.1" y1="310.8" x2="172.1" y2="310.8" stroke="#c24173" stroke-width="1.6" opacity="0.72"/>
<circle cx="167.1" cy="316.6" r="4" fill="#c24173"/>
<line x1="259.0" y1="313.7" x2="259.0" y2="305.1" stroke="#c24173" stroke-width="1.6" opacity="0.72"/>
<line x1="254.0" y1="313.7" x2="264.0" y2="313.7" stroke="#c24173" stroke-width="1.6" opacity="0.72"/>
<line x1="254.0" y1="305.1" x2="264.0" y2="305.1" stroke="#c24173" stroke-width="1.6" opacity="0.72"/>
<circle cx="259.0" cy="309.4" r="4" fill="#c24173"/>
<line x1="300.9" y1="314.0" x2="300.9" y2="307.4" stroke="#c24173" stroke-width="1.6" opacity="0.72"/>
<line x1="295.9" y1="314.0" x2="305.9" y2="314.0" stroke="#c24173" stroke-width="1.6" opacity="0.72"/>
<line x1="295.9" y1="307.4" x2="305.9" y2="307.4" stroke="#c24173" stroke-width="1.6" opacity="0.72"/>
<circle cx="300.9" cy="310.7" r="4" fill="#c24173"/>
<line x1="340.8" y1="300.7" x2="340.8" y2="291.2" stroke="#c24173" stroke-width="1.6" opacity="0.72"/>
<line x1="335.8" y1="300.7" x2="345.8" y2="300.7" stroke="#c24173" stroke-width="1.6" opacity="0.72"/>
<line x1="335.8" y1="291.2" x2="345.8" y2="291.2" stroke="#c24173" stroke-width="1.6" opacity="0.72"/>
<circle cx="340.8" cy="296.0" r="4" fill="#c24173"/>
<line x1="444.7" y1="291.0" x2="444.7" y2="283.4" stroke="#c24173" stroke-width="1.6" opacity="0.72"/>
<line x1="439.7" y1="291.0" x2="449.7" y2="291.0" stroke="#c24173" stroke-width="1.6" opacity="0.72"/>
<line x1="439.7" y1="283.4" x2="449.7" y2="283.4" stroke="#c24173" stroke-width="1.6" opacity="0.72"/>
<circle cx="444.7" cy="287.2" r="4" fill="#c24173"/>
<line x1="614.8" y1="278.7" x2="614.8" y2="271.4" stroke="#c24173" stroke-width="1.6" opacity="0.72"/>
<line x1="609.8" y1="278.7" x2="619.8" y2="278.7" stroke="#c24173" stroke-width="1.6" opacity="0.72"/>
<line x1="609.8" y1="271.4" x2="619.8" y2="271.4" stroke="#c24173" stroke-width="1.6" opacity="0.72"/>
<circle cx="614.8" cy="275.1" r="4" fill="#c24173"/>
<line x1="799.2" y1="261.0" x2="799.2" y2="247.9" stroke="#c24173" stroke-width="1.6" opacity="0.72"/>
<line x1="794.2" y1="261.0" x2="804.2" y2="261.0" stroke="#c24173" stroke-width="1.6" opacity="0.72"/>
<line x1="794.2" y1="247.9" x2="804.2" y2="247.9" stroke="#c24173" stroke-width="1.6" opacity="0.72"/>
<circle cx="799.2" cy="254.5" r="4" fill="#c24173"/>
<line x1="878.3" y1="255.1" x2="878.3" y2="229.2" stroke="#c24173" stroke-width="1.6" opacity="0.72"/>
<line x1="873.3" y1="255.1" x2="883.3" y2="255.1" stroke="#c24173" stroke-width="1.6" opacity="0.72"/>
<line x1="873.3" y1="229.2" x2="883.3" y2="229.2" stroke="#c24173" stroke-width="1.6" opacity="0.72"/>
<circle cx="878.3" cy="242.2" r="4" fill="#c24173"/>
<line x1="118" y1="508" x2="148" y2="508" stroke="#2563a6" stroke-width="3"/>
<circle cx="133" cy="508" r="3.5" fill="#2563a6"/>
<text x="160" y="512" font-family="system-ui, sans-serif" font-size="12" fill="#111827">Current: full conversation</text>
<line x1="394" y1="508" x2="424" y2="508" stroke="#c24173" stroke-width="3"/>
<circle cx="409" cy="508" r="3.5" fill="#c24173"/>
<text x="436" y="512" font-family="system-ui, sans-serif" font-size="12" fill="#111827">Optimized: cached prefix</text>
<line x1="690" y1="498" x2="690" y2="518" stroke="#4b5563" stroke-width="1.7"/>
<line x1="684" y1="498" x2="696" y2="498" stroke="#4b5563" stroke-width="1.7"/>
<line x1="684" y1="518" x2="696" y2="518" stroke="#4b5563" stroke-width="1.7"/>
<text x="718" y="512" font-family="system-ui, sans-serif" font-size="12" fill="#111827">95% confidence interval</text>
<text x="480" y="550" font-family="system-ui, sans-serif" font-size="12" text-anchor="middle" fill="#4b5563">In this fixture, clear separation begins around 24k prompt tokens.</text>
</svg>
